/* XPM */
static char *_cd70803fc1047cba455fc284d0022adiOfQQYoKwdipS5lD[] = {
/* columns rows colors chars-per-pixel */
"64 64 217 2 ",
"   c None",
".  c #29261E",
"X  c #2D2B26",
"o  c #2E2D2A",
"O  c #292725",
"+  c #302F2E",
"@  c #2D2E32",
"#  c #292B3A",
"$  c #302F32",
"%  c #2F3033",
"&  c #313235",
"*  c #33343C",
"=  c #282C4B",
"-  c #2E3045",
";  c #2D314E",
":  c #333543",
">  c #363942",
",  c #383B44",
"<  c #31344C",
"1  c #36394C",
"2  c #393B4C",
"3  c #282E5A",
"4  c #2B3159",
"5  c #353A53",
"6  c #393C53",
"7  c #343A5B",
"8  c #3A3E5A",
"9  c #313653",
"0  c #232C64",
"q  c #2B336A",
"w  c #2D3361",
"e  c #333B66",
"r  c #343C6C",
"t  c #303764",
"y  c #283379",
"u  c #333C7B",
"i  c #333E75",
"p  c #3D4156",
"a  c #3D425D",
"s  c #3C4164",
"d  c #3D436C",
"f  c #3B4270",
"g  c #3C467B",
"h  c #3F497E",
"j  c #3E4872",
"k  c #434859",
"l  c #414662",
"z  c #444B65",
"x  c #42496E",
"c  c #4A536C",
"v  c #4C5466",
"b  c #535C69",
"n  c #424C75",
"m  c #434C7C",
"M  c #404670",
"N  c #4D557B",
"B  c #4C5579",
"V  c #535D73",
"C  c #5F6A7C",
"Z  c #202F82",
"A  c #2D3B8C",
"S  c #273487",
"D  c #313D83",
"F  c #2C3C93",
"G  c #2D3E9D",
"H  c #263696",
"J  c #33418C",
"K  c #3E4A8A",
"L  c #2F419E",
"P  c #34459D",
"I  c #3D4B9D",
"U  c #3E4B93",
"Y  c #2F40A0",
"T  c #3343A3",
"R  c #3649A6",
"E  c #3A4BA5",
"W  c #3B4DAC",
"Q  c #3648A9",
"!  c #3D51AD",
"~  c #3E4EB1",
"^  c #3F52B2",
"/  c #434C82",
"(  c #434E8C",
")  c #494F80",
"_  c #4D5985",
"`  c #495286",
"'  c #434D96",
"]  c #465293",
"[  c #4B5694",
"{  c #4E5B9A",
"}  c #4A5799",
"|  c #515D9B",
" . c #505994",
".. c #5A6892",
"X. c #54628E",
"o. c #626F8D",
"O. c #4453A1",
"+. c #4956A2",
"@. c #4252AC",
"#. c #4A5CAC",
"$. c #4B58A5",
"%. c #525EA4",
"&. c #4355B4",
"*. c #465AB5",
"=. c #4C5CB4",
"-. c #4B5CBB",
";. c #4657B7",
":. c #4856AE",
">. c #5363AD",
",. c #5C6CAC",
"<. c #5765A5",
"1. c #4E62BD",
"2. c #4D63B2",
"3. c #5464BC",
"4. c #536ABE",
"5. c #5A6ABC",
"6. c #5564B3",
"7. c #5E70B6",
"8. c #6272AC",
"9. c #6C7BA2",
"0. c #697DBE",
"q. c #6275B7",
"w. c #505FC1",
"e. c #4959C3",
"r. c #5364C4",
"t. c #566BC4",
"y. c #5B6BC5",
"u. c #576AC9",
"i. c #5B6CCB",
"p. c #5667C8",
"a. c #5D73C5",
"s. c #5E72CE",
"d. c #5F71D0",
"f. c #5568CA",
"g. c #667BC4",
"h. c #697BC1",
"j. c #6275CD",
"k. c #697CCB",
"l. c #6177CA",
"z. c #6376D3",
"x. c #667BD5",
"c. c #697DD5",
"v. c #667AD8",
"b. c #697ED9",
"n. c #7589B9",
"m. c #7487B3",
"M. c #6B81C8",
"N. c #7087CD",
"B. c #6C84D4",
"V. c #6D82DC",
"C. c #6B85D6",
"Z. c #7286D5",
"A. c #7286DB",
"S. c #748ADD",
"D. c #768DD9",
"F. c #7B92DE",
"G. c #7892D6",
"H. c #7590CB",
"J. c #7086E1",
"K. c #748BE4",
"L. c #768EE9",
"P. c #798FE4",
"I. c #7791E4",
"U. c #7B93E5",
"Y. c #7E99E4",
"T. c #7B94EA",
"R. c #7E99EB",
"E. c #6B82E1",
"W. c #8694AA",
"Q. c #8499CB",
"!. c #879DD9",
"~. c #9EAFC1",
"^. c #99B1DA",
"/. c #A2B8D4",
"(. c #839CE4",
"). c #829DEC",
"_. c #819CF1",
"`. c #8AA3E4",
"'. c #86A2ED",
"]. c #8AA5ED",
"[. c #8FAAEC",
"{. c #8AA8E7",
"}. c #94AAE4",
"|. c #93ACEB",
" X c #95ABE7",
".X c #9AB3EB",
"XX c #99B4ED",
"oX c #86A3F2",
"OX c #89A5F1",
"+X c #8DAAF3",
"@X c #8EABF8",
"#X c #91AEF3",
"$X c #91AEF8",
"%X c #95B4F5",
"&X c #99B6F6",
"*X c #9ABAF6",
"=X c #97B6F8",
"-X c #99B7F9",
";X c #9AB9F9",
":X c #A2BBEC",
">X c #A1BDF8",
",X c #ACC3EB",
"<X c #A6C2F4",
"1X c #AAC5F4",
"2X c #A6C4F9",
"3X c #ACCAF9",
"4X c #AAC7F9",
"5X c #B3CDF5",
"6X c #B2CFF9",
"7X c #B9D2F4",
"8X c #B7D3FA",
"9X c #BAD6FA",
"0X c #BBD7F8",
"qX c #BAD3EF",
"wX c #C3DCF4",
"eX c #C2DDF9",
"rX c #C8E3F8",
/* pixels */
"                                                                                                                                ",
"                                                                                                                                ",
"                                                                                                                                ",
"                                                                                                                                ",
"                                                                                                                                ",
"                                                                                        X X o                                   ",
"                                                                                      * * & & &                                 ",
"                                                                                    k v c z l 8 2                               ",
"                                                                                  , V 9.0.8.X.) p *                             ",
"                                                                                & p o.Q.[.U.j. .a & X                           ",
"                                                                              : 7 B m.^.2X+XV...s & X                           ",
"                                                                            $ 7 g <.Q.,X8X;XI.,.z & X                           ",
"                                                                          , 2 M { k. X7XwX<X`.7.n < #                           ",
"                                                                          m /  .g.(.:X0XeX3X[.M.[ q = # X X X                   ",
"                                                                          :.=.l.F.|.5XeXrX6X%XD.#.J q < * & & *                 ",
"                                                                          &.r.x.).*X8XrXwX6X|.I.a.2.{ N v z a p 2               ",
"                                                      + + + + X X @ 3 y Y ~ w.C.'.>X8XrX0X<X{.U.I.G.H.n.m.8.| m 8 &             ",
"                                                      2 , * , , > 5 r J R ^ r.x.I.|.1X0X5XXXY.R.].%X%X%X'.K.l.| s & X           ",
"                                                    | ) N N N N N _ } #.1.u.s.s.l.N.!..X.X!.C.K.OX=X=X$XoXT.V.<.l & X           ",
"                                            & a | i.k.j.0.h.h.h.0.M.k.x.C.E.V.s.1.2.a.F.Y.C.d.C.R.=X%XR.R.T.S.,.z * X           ",
"                                          2 k B ,.c.K.(.)._._.(.R.R.I.K.K.K.J.d.*.! 1.s.x.s.x.C.{.+XOXR.T.L.A.,.z * X           ",
"                                        , c  .8.k.(._.OXoXOX@X$X@XoXR.J.b.V.b.z.u.r.1.^ 1.s.D.Y.R.'.R.T.L.L.B.<.z & X           ",
"                                      & k X.M.F.+X&X&X&X$X&X#X$X=X+XR.V.d.z.d.d.V.C.t.! *.M.'.+XR.U.I.I.J.E.a.| k * X           ",
"                                      s N 8.F.%X>X>X3X3X>X.X].].].].).K.V.V.V.V.K.E.s.1.1.B.'.].U.V.E.E.x.5.<./ 8 *             ",
"                                      | ,.N.].>X6X0XrXeX>X.X!.P.U.).'.).).I.K.J.I.L.V.x.x.K.R.I.C.d.d.s.6. .x 6 :               ",
"                                    r.i.c.Y.#X3X0XrXrXwX:X!.b.v.K.R.].#X[.].T.U.L.I.I.K.K.K.J.j.3.=.=.#.} d : &                 ",
"                                    r.v.K.).=X3XeXrXwX:X`.!.b.b.I.'.+X=X=X#XoXR.T.T.T.T.K.x.t.#.] / h m d 1 @ o                 ",
"                                H T -.v.U.].=X3XeXwX,X!.(.b.K.).].@X=X=X=X%X#X+XR.T.L.L.C.t.! J r 5 < 1 < & & o                 ",
"                                y F #.c.R.+X=X4XeX7X.XZ.c.Z.).|.%X=X=X*X=X*X=X+XR.T.T.I.b.-.T y 4 @ + $ $ & + +                 ",
"                                4 r { k.R.+X=X2X3X4X(.Z.c.(.:X>X*X*X=X=X=X;X;X#XR.T.T.L.V.-.Y Z 3                               ",
"                                @ 2 _ h.R.@X%X;X-X#X(.c.Z.}.7X7X2X*X*X=X=X*X=X+XR.T.I.L.x.*.L S                                 ",
"                                o , N h.T.oXOX'.(.S.c.v.(.}.5X7X2X*X=X=X=X%X+X'.R.I.K.V.a.O.u y                                 ",
"                                o , N h.T.R.R.A.a.4.t.c.T.|.>X4X>X*X*X=X%X[.R.R.T.P.V.z.6.K t ;                                 ",
"                                o , N h.I.R.I.s.^ R *.x.T.#X&X;X*X*X=X=X+X'.R.T.L.J.b.p.+.d : o                                 ",
"                                X * n q.E.T.K.s.W L ;.v.(.+X%X-X;X=X%X+XoXT.I.I.J.b.z.r.+.d & o                                 ",
"                                o > n 4.v.L.K.s.! Y ;.b.T.+X%X-X=X=X+XR.R.T.I.J.b.v.i.r.+.d : o                                 ",
"                                5 p / 6.i.v.x.t.^ ! w.C.)._.#X%X%X@XoXR.I.K.K.V.v.i.r.-.O.f : o                                 ",
"            1.] 8 o . O # q S J ( ] { 3.r.r.-.*.*.-.i.J.T._.).oX'.oXR.T.L.J.E.d.i.r.-.~ T D                                     ",
"          w.2.] s * & & < q A W =.r.y.r.-.! Q W -.i.v.K.T.T.T.T.U.I.I.L.K.V.d.s.p.-.@.P F A                                     ",
"          I @.+._ V b b B ( E &.i.x.b.x.t.W G T ;.i.v.V.J.J.b.J.J.J.J.J.b.x.i.u.r.-.I D y                                       ",
"      $ < u P #.q.n.n.n.n.7.1.u.x.J.Y.Y.B.=.T T &.r.z.v.v.v.v.v.v.v.v.v.z.d.p.r.w.=.( e ;                                       ",
"      $ - q F &.M.Y.|.{.Y.D.x.C.K.T.].%X(.l.W R @.=.3.p.d.j.d.d.d.d.d.i.i.r.-.-.-.$.m 5 $                                       ",
"      $ - q A W t.B.B.B.C.D.F.Y.).].*X3X:XG.4.O.( ` } 3.i.i.i.i.i.i.i.i.w.e.@.O.U m e >                                         ",
"      & - q S Y Q ! W ~ 4.B.R.%X#X=X3X0X8X|.C.<.n e h $.w.r.w.w.w.r.r.w.-.@.Y D t 2 >                                           ",
"      & - w y F G T Y T @.a.P.+X:X>X5XwX6X%XF.7.n 5 r ( +.+.+.+.+.+.+.+.O.T F y ; $                                             ",
"        # ; w f ' &.;.;.*.3.y.Q.:X8X5X>XXXoXU.5.] q t d d d M d d d d M f u                                                     ",
"          % - s } 3.p.y.r.~ @.5.^.7X:X|.).).P.j.O.A q 9 * : * : : : * * :                                                       ",
"            % p N %.5.i.r.W Y 6.Q.:X XP.J.).`.Z.*.F y - o X o o o o o o o                                                       ",
"              , p M  .5.r.~ Y @.g.D.D.v.S. X:X!.5.G S                                                                           ",
"                + 1 B >.r.~ Y T -.i.j.v.(.:X7X/.,.A Z                                                                           ",
"                o * M #.w.@.G G R ;.u.Z.`.5XwX~...i 0                                                                           ",
"                o * x $.-.W Y H G ! t.U.&X9XwX~.C 2 #                                                                           ",
"                o * M ` O.E T G G Q r.Z.`.:X/.W.b * O                                                                           ",
"                    6 e u ' @.&.~ &.*.4.g.k.0.X.k & o                                                                           ",
"                      > 5 / @.;.-.:.@.Q R R ' K 6 & o                                                                           ",
"                      o : d ` ] ] ' ' T T Q T D 9 & X                                                                           ",
"                          6 8 8 8 e / @.&.e.;.' 8 % o                                                                           ",
"                          & & $ & : d ] =.3.6. .a & o                                                                           ",
"                            o X o & 8 M ) ` ` m p &                                                                             ",
"                                    : 1 1 2 6 1                                                                                 ",
"                                      @ & @ & o                                                                                 ",
"                                                                                                                                ",
"                                                                                                                                ",
"                                                                                                                                "
};
