/* XPM */
static char *_b4782f4627e42b2ac2ba52287de8910eX5KUo1OB7IMmCvs[] = {
/* columns rows colors chars-per-pixel */
"64 64 227 2 ",
"   c #010001",
".  c #0B0302",
"X  c #030208",
"o  c #0D0709",
"O  c #140906",
"+  c #170906",
"@  c #150A09",
"#  c #1B110D",
"$  c #161115",
"%  c #29150E",
"&  c #2A1B14",
"*  c #251A18",
"=  c #35251B",
"-  c #3A281D",
";  c #191B20",
":  c #241F29",
">  c #22212A",
",  c #382A26",
"<  c #2E2B35",
"1  c #2E2F3D",
"2  c #352B33",
"3  c #312F3C",
"4  c #2E303D",
"5  c #30303B",
"6  c #412E23",
"7  c #4A372D",
"8  c #513B2A",
"9  c #4C3A37",
"0  c #523C32",
"q  c #553E3C",
"w  c #593E3C",
"e  c #5A402C",
"r  c #5E4235",
"t  c #55413E",
"y  c #59473A",
"u  c #5C423C",
"i  c #644636",
"p  c #644936",
"a  c #6A4937",
"s  c #64463B",
"d  c #694738",
"f  c #64493A",
"g  c #6C4B3B",
"h  c #724C37",
"j  c #714D3B",
"k  c #6D513B",
"l  c #74523D",
"z  c #7A533E",
"x  c #7A5A3F",
"c  c #2E2F40",
"v  c #373744",
"b  c #3B3A49",
"n  c #493E46",
"m  c #543E45",
"M  c #593D45",
"N  c #553E49",
"B  c #3D5044",
"V  c #4D4245",
"C  c #484A46",
"Z  c #42404D",
"A  c #4D434A",
"S  c #524144",
"D  c #5C4443",
"F  c #51424A",
"G  c #594A49",
"H  c #47574C",
"J  c #4D534D",
"K  c #54514E",
"L  c #454653",
"P  c #494654",
"I  c #454852",
"U  c #4A4A54",
"Y  c #544D53",
"T  c #4F565D",
"R  c #555455",
"E  c #51565D",
"W  c #525A5B",
"Q  c #614642",
"!  c #644A43",
"~  c #6C4C42",
"^  c #644649",
"/  c #6A4D4B",
"(  c #704E43",
")  c #704E4A",
"_  c #6C5243",
"`  c #69534A",
"'  c #745243",
"]  c #7B5443",
"[  c #735842",
"{  c #7D5A45",
"}  c #74524A",
"|  c #7A5549",
" . c #745C4D",
".. c #7D5B4A",
"X. c #48614F",
"o. c #56685C",
"O. c #7E6045",
"+. c #7D644C",
"@. c #68645A",
"#. c #7C6252",
"$. c #5A5A63",
"%. c #5D6566",
"&. c #5A7866",
"*. c #636566",
"=. c #6A6C6C",
"-. c #65736C",
";. c #73726F",
":. c #6A7676",
">. c #657D72",
",. c #6A7B75",
"<. c #6A7678",
"1. c #6D7B79",
"2. c #83593F",
"3. c #815643",
"4. c #835B44",
"5. c #865C47",
"6. c #845D4B",
"7. c #895E4A",
"8. c #865E51",
"9. c #856246",
"0. c #8A6346",
"q. c #86634B",
"w. c #8A634B",
"e. c #886A49",
"r. c #8C6A4C",
"t. c #916945",
"y. c #916B4D",
"u. c #9B704F",
"i. c #846352",
"p. c #876553",
"a. c #836954",
"s. c #8D6B52",
"d. c #936E53",
"f. c #8F725A",
"g. c #947354",
"h. c #9B7354",
"j. c #967957",
"k. c #95765B",
"l. c #9B765A",
"z. c #9D7B5B",
"x. c #A27857",
"c. c #A27C5C",
"v. c #86756C",
"b. c #967A64",
"n. c #A37D61",
"m. c #AA7F62",
"M. c #5A8569",
"N. c #688577",
"B. c #698A76",
"V. c #6C8A7A",
"C. c #77867E",
"Z. c #6C957F",
"A. c #9D815D",
"S. c #A6815C",
"D. c #98846F",
"F. c #A48463",
"G. c #A78767",
"H. c #AA8464",
"J. c #AB8B66",
"K. c #AD8C6B",
"L. c #B38B65",
"P. c #B58B67",
"I. c #B38E6B",
"U. c #AD936C",
"Y. c #B79568",
"T. c #B4936C",
"R. c #BD956D",
"E. c #BC996D",
"W. c #A58974",
"Q. c #AE8E72",
"!. c #B18F71",
"~. c #A99473",
"^. c #B59372",
"/. c #BC9571",
"(. c #B89874",
"). c #C19567",
"_. c #C1956C",
"`. c #C0956D",
"'. c #C59A6D",
"]. c #C99C6D",
"[. c #C19671",
"{. c #C59B72",
"}. c #CA9E72",
"|. c #C89F78",
" X c #CDA274",
".X c #CEA57B",
"XX c #CDAC79",
"oX c #D1A575",
"OX c #D6A876",
"+X c #DBAD77",
"@X c #D3A679",
"#X c #D6AA7B",
"$X c #DBAE7B",
"%X c #DDB077",
"&X c #DDB07A",
"*X c #6F9F84",
"=X c #759A86",
"-X c #74A489",
";X c #7CB093",
":X c #85958B",
">X c #99978A",
",X c #9FAA80",
"<X c #88A995",
"1X c #86B79C",
"2X c #A6A783",
"3X c #A9B594",
"4X c #B8BD95",
"5X c #8FBCA4",
"6X c #97BAA7",
"7X c #A2BFA0",
"8X c #DBAE80",
"9X c #DCB080",
"0X c #9AC89E",
"qX c #BCC19A",
"wX c #8AC5A5",
"eX c #8BCBA7",
"rX c #97C8A9",
"tX c #8BD6AE",
"yX c #8EDBAE",
"uX c #92D3AE",
"iX c #91DAAF",
"pX c #96CFB0",
"aX c #89D6B0",
"sX c #8EDBB1",
"dX c #93D6B1",
"fX c #91DAB1",
"gX c #A6C7A5",
/* pixels */
"l.L.{. X.X.X@X|.[.[./.^./.[.[.{.@X.XoX X).E.R.|..X XoXoX}.[.[.[.R._._.R.].@XoXoX'._.R.`.{.@XoXoX.X|././.^././././.|. X@X@X}.R./.",
"h.K.E.|.|.{.R.G.m.n.c.l.c.m.m.m.L.L.L.P.E._.`.'. XoXoX].[.[./././._._._._.}.}.}.].R.R.`.|.E.P.L.P.L.m.n.c.l.n.n.c.m._.{.{.[./.^.",
"d.K./.E.R.P.x.7.] z z z 2.7.t.t.0.t.t.x.P.E._.R.'. XoX]._.[.[._._.R._._._._._._._._.R.R.T.S.t.t.t.w.7.3.2.z ] ] 2.3.u.P.R./.^.^.",
"5.n./.T.x.h.w.] z g d a d 3.7.7.0.0.x.L.)._._.)._.].]._._.[._._.R._._._._._.`.R.R._.`.R.[.P.H.t.7.7.7.z h d d j j 3.t.u.u.G.(.Q.",
"l z./.K.t.7.5.] ( d p d h 2.3.7.0.y.L.[._._._.'.)._._.)._._.[.'.'.'.)._.`.R._._.R.).'.{.[./.T.u.t.w.8.3.j d s d l 4.w.0.7.H./.G.",
"l z.!.K.y.7.3.' ' g p g ( 7.7.7.y.H.T.[.R.'.oXoX).).)._._.[._.}.#X@X_._.R._.R._._.].#X$X{._./.L.h.7.w.8.] j d d ~ { w.0.w.c.m.p.",
"l s.G.G.y.w...~ ( d i d ] 7.7.y.c.I.R.R._.}.#X#XoX X'._._._.).oX&X#X'.R._._._.).'.oX$X$X X[./.R.c.d.w.w.| ( p d g ' { w.w.g.k.8.",
"k O.l.G.w.7.] d p s i d ] 7.7.x.I./.R._.].#X$X$X%X#X'._._._._.OX9X#X'._.)._.'.). X$X$X$X}._.`.R.R.c.w.w.] j p s p a h 7.w.w.w.8.",
"p { s.g.w.4.( s s p p d ] 7.0.h.P._.[._.'.OX$X$X$X$X#X}._._.oX+X$X9X@X|._.'.oXOX+X+X$X$X}.'._.`.[.S.w.w.{ g s f i i j 9.w.4.] g ",
"r l 6.q.7.3.g p s s p g z 9.0.l./.R._._.].OX+X+X$X8X8X}._.'.#X%X$X&X$X}.].}.OX$X+X+X%X%X]._._.R.[.H.d.7.] j f s p d j w.7.{ j i ",
"p p z 9.w.] j p p p p d z 7.7.x./._._._.].+X%X%X&X$X8X}.).].+X+X&X$X$X}.}.+X+X+X&X&X&X&X].'.E.`././.H.r.3.( p s p s j 8.w.{ k f ",
"r p l q.w.] g p y p i h 4.0.5.u.[._._._.].OX%X%X&X$X8X}.)._.}.].oX}.}._.].}.oX+X%X&X&X$X@XoX_.`././.J.r.4.' p s p p j 3.7.3.' f ",
"p p l 0.6.] ( p f p d l 9.0.0.x._._._.P.].OX+X$X&X$X8X}._._._._._._./._._._.).OX%X$X$X$X$X@X_.`././.G.d.q.[ d p s d d ] 7.3.g f ",
"k g l 9.] ] ~ d f i l 6.9.e.h.L.[._._._._.].OX8X+X].{.[._._.R._._._._._.R._.'.@X$X$X%X$X$X@X)._.R.T.U.F.d.q.{ p p p g ' 8.] p f ",
"} d l ..] ( g s i g ..9.9.e.S.R.[._._.[._._.@X@X}._._._._._.`.`._._._./._._._.}.@X+X&X$X$XoX_._./.T.T.K.d.w...d s s ~ ( 6.j i f ",
"_ f ~ [ ( ~ s i i { w.w.0.0.c.T._._._._.[.[.@X@X_._._._._._.`.`._._._._._._._._.`.].+X$X$X@X)._.R./.U.U.g.9.q.' i r s f _ ~ p f ",
"} f s g ! ! s i d 6.w.w.q.z.J.T.R.R.R._././.{.{._._._.R._._.`././._.[._._._._._._.].$X&X$X@X)._.R.(.U.U.h.7.w...f u u f ! f u s ",
"_ s u Q Q f i i ] 6.w.w.r.J.U.Y.R.R.`._.[.[.[._._.R._._.R.R.R.R.R./.R._._._._._._.}.#X#X$X}.'._.E.T.U.K.d.w.w.8.~ i w Q Q u t w ",
"` f u Q Q Q i g 6.w.w.w.e.J.T.I.E.R.`.`.R._._._._._.[.[.R.R.T.I.I.T.T././.R._._._._.]._.'._._._.E.T.^.K.h.7.w.i.} ! u Q Q D t w ",
"! u D u s i d j 7.w.0.r.j.K.T.T.R._.`.`.R.R._._.R.R./.(.I.F.F.F.n.n.n.F.I./.T.R._._._._._._._._./.^.U.U.d.w.6.i...~ u s Q t t S ",
"y t w u u w a z 7.w.w.g.K.T.T.T.R.R.`.R._.R.R._.R./.^.~.F.+.+.+.#.+.+.+.k.~.T./._.[.[.`._._._._.`.R.T.U.g.0.w.p.i.} i u s D w q ",
"f t w w u i h 7.w.w.g.z.j.J.T.R.R.`.`.`.R.R.R.Y.T.^.b.a.f - - = - = = = e #.k.K.^.T./.[.`.'.oX@X{.T.T.U.g.d.l.e.w.6.' g f s u t ",
"y t w u i d x w.w.9.A.A.g.J.R.R.`.`.R./.R.R.E.T.U.D. .y = .   . .     . % 7 [ b.J.I.R.R.R.}.8X8X XE.E.U.g.z.F.d.w.7.6.] g g f r ",
"D u u Q ~ { 0.w.0.9.e.j.S.U.T.R.`.`.R.E./.T.T.z.a.#.= @ o X       X     o O % ' s.j.J.T.Y.}.8X$X].].XXT.K.z.g.H.d.w.9.6.q.6...k ",
" .#.p.s.d.l.l.l.h.k.j.A.U.I.Y.[.R._.R.R.R.T.F.k. .7 @               X X     O 6 ~ s.c.x.L.'.oX+XXXXXXXY.U.F.c.P.c.h.x.x.c.l.l.s.",
"l.K./.T.R.R.T.I.T.T.U.U.U.T.R.R.[.[._./.Y.J.g.#.G O                         . . 7 q.w.0.S.E.'.+X$X&XXXY.U.U.I.T./._.R././.R././.",
"l.P.[.[.`.R./.T.T.T.U.U.T.T.R.R.[.[.[.R.L.g.a. .9 o                           . , ~ q.e.S.Y.R.].@X&X#XY.T.U.I././.R.[.[./._././.",
"l.G./.`._.`.`./.E.(.T.T.T.R.R.{.R.R./.I.G.e.i.! , o                             * r q.q.A.Y.R.).}.#XoX_.T.T.T.R._.[._.R._.R.R.^.",
"k.H.T.`.`.`.R.`.E././.R.R.R.`.`.R./.T.T.J.q.a.9 .                             . . = ..q.c.T.Y.E.{.`.'._./.R.R./._._.`.R.R.R./.K.",
"9.n.R.`.`.`._._.`.R.R.`.`.R./.R.R.R.Y.J.j.p. ., .   X     X                     . & _ ..g.S.T.T.R.R._._./._._._._._.`.`._././.Q.",
"l l.T.R.R.R.`._.`._._.R.`._./.R.T.T.U.A.e.#.u &                                   # 0  .9.g.J.U.T.R._.)._._._._._._.`.R.`./.^.K.",
"l e.z.Y.R.`.`.`._._.`._._.R.`.R.T.T.U.z.q.#.- O                                   . & } w.r.g.J.T.^._._.R._._._._._.`.`.R.T.G.f.",
"k O.g.T.Y.R.R.R.`.`.`.E.R.R.E.E.T.U.U.F.f.#.&                                       + ~ p.0.e.J.U.U.Y.E.E.E.`.`.`.`.`././.P.l.q.",
"[ ..j.T.T.R./.R.R.`.Y.T.E.E.E.T.T.T.U.U.W.#.&                                       + } i.0.e.J.U.U.U.T.(.E.E.`.`.`.`./.R.c.q.i.",
"g [ e.z.I.T.E.R.R.R.(.Y.(.T.Y.T.K.K.T.K.b.` *                                       O y ..y.c.U.U.U.U.U.U.Y.Y.E.E.R./.[./.j.{ [ ",
"u k x r.K.T.T.^.T.T.T.U.T.T.U.U.Y.T.^.F. .9 #                                       o 6 l g.T./.T.U.U.U.U.U.Y.E.E./.E././.d.j p ",
"f p l s.K.T.T.T.T.T.U.~.U.U.U.U.U.^.^.F._ % .   X X                                 . O 8 l.T./.Y.U.~.U.~.U.U.U.T.R././.^.d.g f ",
"r p k e.c.F.F.F.T.U.U.U.~.U.U.Y.Y.R.(.F.` @                                           . 8 l./._.E.T.U.U.U.U.U.U.I.I.H.H.m.w.k f ",
"r i a x e.w.e.e.U.U.U.U.~.U.T.Y.R./.(.G.K @                                           . 0 k./._.E.Y.T.U.U.U.~.U.U.z.w.r.r.{ k p ",
"k p l 4.2.9.e.e.j.J.U.U.~.U.Y.Y.R./.^.b.y @                                         . . - a.T._.R.Y.T.U.U.U.U.~.l.d.w.w.9.z p p ",
"_ g ( 7.] 4.5.9.e.S.U.U.~.U.U.Y.R.R.~.a.2 o                                             & _ I.T.E.E.E.U.U.U.U.U.g.9.w.7.w.] d d ",
"_ g g ] 6.j h 2.e.J.U.U.U.U.Y.Y.E.R.(.` # X   .                                       . O 8 Q.(.E.E.(.U.U.U.U.K.d.w.w.w.w.' s s ",
"_ d s ] ..h h z 9.h.J.U.U.U.Y.E.E.^.W.D .                                               . , b.^.R.E.(.U.~.U.K.c.w.3.7.w.6.( s M ",
"} i s ! } g a z z 9.z.U.U.U.Y.E.R.Q.f.9                                                   = a.G.Y.R.Y.Y.~.U.G.w.2.z 3.6.| d w w ",
"/ s i f f d ~ ] 4.3.0.z.U.U.T.R.K.b.#.,                                                   * ! g.L.T.R.E.U.^.F.y.7.3.| 6.| Q w m ",
"/ s D D Q s ~ ] 6.2.4.g.J.T.T.^.F.a.t *                                                   # 8 9.c.T.E.T.K.H.n.r.8.6.| 6.} Q m S ",
"u u w t Q w ! ] 3.6.w.e.d.J./.m.s.#., o                                                   . % [ F.^.T.I.j.y.y.7.8.6.( s / ^ S t ",
"y y w m ^ M s g ' 3.5.w.e.l.b.d... .*                                                 X X . O _ s.l.l.z.y.7.7.8.7.) ! u / ^ K @.",
"G y y S G M w d ] z 5.w.9.w.4.] } / *   X X X X X X   X X X X X X X X X X X X X X X X X X o + Q ' ] ] w.7.0.7.w.6.! u t / G @.>X",
"C ;.=.S S m w i ' 3.3.4.w.i.] l ~ D * $ > > > > > > > > > > > > : > > > > > > > : : > : : $ + 0 ( ] ] 7.t.5.3.7.| s q t F S @.:X",
"@.D.v.S m w w s } 6.3.3.7.6.] ~ ! q * ; 4 4 4 4 3 3 3 1 4 4 4 4 1 3 5 5 3 5 5 5 c 3 3 3 c > $ 6 s ( ' 6.7.5.3.6.| ^ m m V V &.<X",
"~.>X1.A V m m D ) ' z ] 8...! u m 2 < < 4 c 4 4 3 3 3 c c c 4 c 1 4 c 4 c 5 4 c 1 3 3 c c 3 2 , 9 w s ] 7.7.7.] ) ^ S V V t &.rX",
"2X3XC.n N F m w ~ ( z ] ..} ! w m 2 < 1 c c b b b b b b b b b b b b b b b b b b b b b 5 c 3 3 2 9 w s ( 3.7.6.} / D m F V B &.uX",
"2X7X:XY F N M w w g ( ] ) ' Q m n c 1 3 c v b P P P P L P P P P L P P P P P P P P P Z v c c 3 2 9 M u ~ ] 3.8.) D S m V V C M.uX",
"2X7X6X1.G m m m w s ( } _ Q S S P n b B b n n L U I I B I I I U P L L L L L L U I I U L L n A n G Y M s ~ ] } u m m S S V -.;XuX",
"2XgX6X:XY m N m M w ! } / D S S P P P P P P E T T T W W T T T T T T T T T T T T T E T U L P P P Y ^ M w ! ) / D t V m V C V.wXyX",
"qXgX6X:XK n N N M q ! / D m m V P P P P P U =.<.<.,.,.,.:.:.<.1.1.:.<.<.<.<.<.<.<.<.<.E L P P F F F m m D ^ / D m V m n C =XuXsX",
"qXgXrX<XJ V N N N m M ^ M m A V A L $.%.%.%.<.1.>.>.,.>.,.:.1.,.,.,.,.,.>.>.,.>.,.1.<.%.%.%.$.U A A M S m M ^ S m m m V B *XdXtX",
"4XgXrX1Xo.C F M N m m w m N n P P T =.1.1.<.>.N.V.V.V.V.V.C.V.V.V.V.V.V.V.V.V.V.V.V.,.>.<.1.<.E Y F F F m M M M m m V C X.-XfXtX",
"4XgXuXrX<Xo.n N m m m m m A N R =.-.>.:.>.>.M.=X5XwXwXwXwXwXwXeXwXwXwXwXwXwXwXwXwX<XN.N.>.>.<.-.;.$.n F n M M M m V V H -XeXtXtX",
"3XrXuXuXrXZ.R S m S S m F V Y *.>.N.=X=X=X-X*X1XdXdXfXsXsXsXsXsXfXsXfXfXsXsXsXfXfXeX-X=X=X=X=XN.1.=.R F n N M S V C H M.wXiXyXyX",
",X0XuXuXdXrXZ.K C V V S V A @.:.B.B.1XuXtXtXtXyXsXsXsXsXsXsXaXaXtXyXyXyXyXyXyXyXiXdXuXuXaXrXrX=X>.;.=.F A m S V C B &.rXiXyXyXyX",
"3X0XyXyXiXdX5X=X1.K V m V A %.>.B.;XeXfXfXiXsXyXyXsXsXsXsXyXtXaXaXtXyXyXyXyXyXyXyXyXiXfXdXdXpX1XZ.,.=.C V V S C &.Z.;XuXyXyXyXyX",
"4X0XyXyXiXiXdXrX<Xo.J J J J &.N.Z.eXsXyXyXyXyXyXyXyXyXtXsXsXtXaXaXtXyXyXyXyXyXyXyXyXyXyXyXsXfXrX-XB.>.W K K H H =XrXiXyXyXyXyXyX"
};
