/* XPM */
static char *cfe2e46422e64717fd62ac3e8f27646csfa1LG86ASNJVQDW[] = {
/* columns rows colors chars-per-pixel */
"64 64 34 1 ",
"  c #65C099",
". c #65C09A",
"X c #67C19A",
"o c #69C29C",
"O c #6AC29C",
"+ c #6BC29C",
"@ c #6BC39D",
"# c #6FC09C",
"$ c #6DC49E",
"% c #6FC59F",
"& c #70C39E",
"* c #71C49E",
"= c #71C59F",
"- c #72C49F",
"; c #72C4A0",
": c #73C7A1",
"> c #73C7A2",
", c #74C7A1",
"< c #75C6A3",
"1 c #74C8A2",
"2 c #75C9A3",
"3 c #76C8A3",
"4 c #77C9A3",
"5 c #76C9A4",
"6 c #79CAA5",
"7 c #78CBA6",
"8 c #7BCBA6",
"9 c #7DCCA7",
"0 c #7ACBA8",
"q c #7BCDA9",
"w c #7FCDA9",
"e c #80CDA9",
"r c #82CFAB",
"t c #83CFAB",
/* pixels */
"#&&*%*****3%*#o#%=*@=**==***%2=*&@%***%*%=2=%%**=2%&X@*****%*33*",
"*:30773*5qqq: oo6=%3%=66733%79q6 OO%*%3=27976=%69q6@@%%%**3%7773",
"*::511*3*513%#*:%226=6346%=36226@**%33*3%424=2%6333%%*%333*%1331",
"*:*:%11%1*%11:::qq22=3%%==3%==%%=3337q3*4%%=%2=%*3*%2%27q7*3:**1",
"*:<:<**53%3%1:<%222======23%3%6%3%%:131%2%244==4111*5%22<3%:::::",
":>::113%%5*3%5*:%22%=8=62=%3=3==%13*%3114===4=2=%1:1*1***:<:::::",
"&5*:%1:52%3*:55*%==%=42%=333%4*63*%3*%:%2=24=28%351*7%1%11%:::::",
"&*5**11*%2%3%%:1$X@%4=%6=2%%6%%%%31%@ #:%2=====%**%3%3%@ @<:>:*:",
"====8==82%*%2%6*@%@%==%%=6%62%==22%=%@%%36==%=662=%%3===@@3%3%::",
"=4=%%===*636%2%2qq2%4=2==%2=%26=%%6762%3%%==6=%=%=23*4771::%*1::",
"==@%=6==%*3%%322q48=%@@======66=4%3726%*X@=6==%%23%3*3775:% o%:*",
"%X%%====%%%%2*4%4==%@%@==8@%@==%=2%%*6%@@%%=6==@*%3*4%%251#@#%%5",
"====%%2=@%%6%2%%===%==%%=%%%@@=24*2%==2%%%%6%=%%@=2=%2%%*11*%*:%",
"==%4982%=%%=6*=6=68%%=qrq8==%%6%%2%2=62%%2996===%=222*6*%3%357r7",
"=62ttt8%====%6=62%==6%9tt9===66%6%2*%%2*=eet6%6=%6%=%6*62%%*7rrw",
"=%%222%%6%6%2===%6==6=2244===2%=*2%6=6%6=6==2%====%62%2%%23%:*3*",
"==%==%8%2%=%2==2==%2%4%===2%2%%222%==%=6%%==%4%2=2=%=2%===8%====",
"==%%8%===2442=%%%2224%242%%2%22%%=%=62==22q=4=%262=2%=%6%6===844",
"==8888=8%qwq2@X%====%22444%489q2%@%%%%%%%8qq2%=479q%@X%%==222q74",
"==%8%8%%2424@%@=424=%22424==2242@%=2=66%%2=22%%4722@==%26=%=2222",
"=9==%=8%%===%4%44q86%%2%%=4%=%4====q7q7%6=4==42%%%%===6896%2%%%=",
"===6%%8%4%4%4%4%222=2%%24%%444======242%===4%4%4=66=%6=626=%2%36",
"==%%8=%=%4%4%4%4%%==2%6=%4%4%4=84=====%44%4%4%4=%2%=26%=%%=6%2%2",
"==8=%%%84%4%4%4%22=6%6==4%4%4%===4=4=%4=%4%4%4%46%6=%=2%%2==6%2%",
"======44%4%==424@  @%2%%%3%28%%64%=%X $%===6%24=2%====@@X%%6%6*=",
"===9=%2%4%==%4%%%@@%226*=62%==%=%42%$@%26%==6%==2%246%%%@@3=2%==",
"===4424%4%424%%476%3*%=46=%66=%6444222%2=%6%==84%24=%6222%===6==",
"=%%===%4%4=%%4=4763%*%*=%==*=%2=%=2226%%X%======6%====8224=@%%%6",
"%X=%%=%=%%==4%==2%2%@@@=2%=%@====6%626=@=%%=2%%@%===2%=82=@@@@=%",
"======4%@@@4%44=%%*3%*%%=6=%@@6%=%2=%%===%===%X%@=4=%6==%=====2=",
"====8===%=4%4%4%43%%3%%76%%====2=6==2%==%%482%%=%4=4==2%====%262",
"===rrr4===%4%4%43*4**3rrr6%6==2%2%=6%6%3%q9tq%4%4=4==6%6=66%69ee",
"=6%28=%%%2%2%4%48=%%%%2422%%%2=2%62%==8=%=662%=6%6%66==6%2%6==84",
"=%2%%=6622=%4%4====822%=%%66%2=%==%===8=2%%%=%=%====%%===%2%====",
"==%22%==%244%=%%=4==%2%4=62%2242=%%==4=42=226==28===%=%%6==2=44%",
"==24882==8q4=%@%===6=%776=%%4q72%%@====%%7q7==624qq=@%%6==8%7q74",
"===q6===%222=%%=422%=424=%%67424@%%242%4%4244==8742%%%=24===242%",
"=====%6%2%6%%4==4qq4==%==6====%=%2%27q4=4=%=======%22%=8w9====2%",
"=%==6%6%6=%64%4%2872=4=8=6=84%4%2%=2472%4%4%4%==2%2%%%6627%62%2%",
"=2%6===2%2=%%4%4%2%%4====%2%%4%4%6=2%==2%4%4%46%2=%26%==2%%6%6==",
"===8%8%====%2%4%=%%2%3%4=6%6==4=2===%%=%22%2===2==8=4==%=2=6=6%2",
"===%%=8=6%=8%2%4%X $3%3*==2%===4%6%%X %2%2=%6%6%4===2%%@ %%2===%",
"=9%8==%%%2======@XX$6%*%%6==8===6%6%@X%=%6==%2=====6%2%@ @%66===",
"==%=8=%82%8=6==8q2@1*%22%6=6==4==%6=22%2==%66%6224%2%%442%%%%=%6",
"%=%=%8%==%=%6=%66q6%%@%*2%6==2===%68=q==X==62%=%=42%==q4q==X%@=%",
"@X@=%===@%%6%=2=3==%@@@%%6@@===66=%2===@X%%%2%=@==4===4===@@%%%2",
"======6@X@=%2%==%%*23%%=%==X@X2%%==%==4==%2%6=X@@=%2%6======%%==",
"==%6e======2%6=6%26%%*3e7===%%%66=8%2=4%==84====%=%22%8=%6==62e6",
"===rtt4%=4%=4%4%%2%===rrr9%=2%=%==2%%=%2=7qt424%=4%4%2%6==2=89t9",
"====8=%44%24%4%46==66==62%=6%66==6%6==6%=4=2==%42%4%6%6%=%===822",
"=%4%===9%=4=4%4%2%==2%===%==2%=%6%==6%%64%%4=42%2%%46====%2==%%%",
"=8%%8===4%2%%4==%3=%%26=62%6==6%=%=6=%3=4=4%4%%444=%=====8%6=2=2",
"==8847==47qq4@@@%2%6%%486%6=6976=@@%%%2%%7qq2%=24q7$@ =6*63%69q2",
"===9%%==%424%%=@%23%=22622=%2276%%%=22%6=7224%=4722$%$%%2=%%2222",
"====%%86=4==4%==29826=%=%==%%%====%=846=6=%%=44=%=22%%6692243=%%",
"==9%6%%=4%%4%24=2246%=%6=6=622===6%226=%2=2=%4%%4=2%2%2222%%3==6",
"=%4%4%4%%4%4%4%4%%=%=6==%4%4====6%====4=%2%==8%4%2===6==1%%2%6*2",
"=4%4%4%44%4%4%4%%%62%%=64%4%=8=6%2==4==22%6===4%6%6===%%%32%2%2%",
"==4%=44%%4%4=%%=$X@%66%=%4%44=%=6=8=@X=4=8%2=4=4==%66%=%@**32%%=",
"=2%4=%=44%==44%4@ X$==2%=%4=4=6====%@X%%=6==4=4=2=%6%2@% @1*%33=",
"=%=%6===%4%4%4%4q422=%2442%42%6=6=6=22%2%2%%====%==8==626=4%6%6*",
"=%==%%=84%4%4%%2482%=$@%%24%%2==%==q24%%X@%2=8=%6=2%*6626=%X@@==",
"@X%X%2%%$%%4%44=8=%%@@X%4=%=%%==2%%2%2%@X %44=%%==%2%%%6%3@XX=6%",
"%%=%2%2@X@%%4%4===%%%=%4%=%XX%=6%26=%%=%=%%=4=X@%=6%26%=%==%%=%2"
};
