/* XPM */
static char *cdaeb0d083cf4be5f89ab1df40cf6799VctPXMCYyFTckn6M[] = {
/* columns rows colors chars-per-pixel */
"64 64 217 2 ",
"   c None",
".  c #020101",
"X  c #0B0603",
"o  c #0E0804",
"O  c #110A06",
"+  c #150D0A",
"@  c #100702",
"#  c #1B130B",
"$  c #181107",
"%  c #1A1110",
"&  c #23150C",
"*  c #29170B",
"=  c #241A0D",
"-  c #2C1A0D",
";  c #321C0E",
":  c #391F0F",
">  c #2D1B11",
",  c #2D1E1C",
"<  c #241812",
"1  c #311D11",
"2  c #2F220F",
"3  c #28221E",
"4  c #352213",
"5  c #3C2415",
"6  c #3C261A",
"7  c #3C2B1D",
"8  c #34251A",
"9  c #362321",
"0  c #3C2922",
"q  c #362822",
"w  c #442613",
"e  c #472A15",
"r  c #4A2A15",
"t  c #402718",
"y  c #452A1B",
"u  c #4B2D1C",
"i  c #512F19",
"p  c #532F17",
"a  c #463018",
"s  c #53321B",
"d  c #5A351D",
"f  c #543D1C",
"g  c #59361A",
"h  c #62391F",
"j  c #432C26",
"k  c #462E2A",
"l  c #4D2F20",
"z  c #4E3222",
"x  c #48362B",
"c  c #533423",
"v  c #5B3622",
"b  c #5D3823",
"n  c #5E3A2B",
"m  c #553829",
"M  c #563935",
"N  c #5A3B37",
"B  c #563833",
"V  c #643B23",
"C  c #673E28",
"Z  c #603E36",
"A  c #5C421E",
"S  c #66461D",
"D  c #7A561E",
"F  c #724D1D",
"G  c #5B442E",
"H  c #564837",
"J  c #4E402C",
"K  c #6D4226",
"L  c #6C4B23",
"P  c #6D432A",
"I  c #644426",
"U  c #73462B",
"Y  c #75492D",
"T  c #7B4A2E",
"R  c #734B22",
"E  c #725224",
"W  c #7C552B",
"Q  c #785325",
"!  c #64423B",
"~  c #6C463C",
"^  c #674634",
"/  c #7D4C32",
"(  c #764C3C",
")  c #7C4F3E",
"_  c #744A36",
"`  c #69543B",
"'  c #6A5137",
"]  c #7E513E",
"[  c #77573A",
"{  c #414141",
"}  c #6E4943",
"|  c #6B4641",
" . c #734B41",
".. c #794D40",
"X. c #6C5C48",
"o. c #7E5443",
"O. c #7B534A",
"+. c #755947",
"@. c #79654E",
"#. c #7D6B51",
"$. c #804D2F",
"%. c #855A2E",
"&. c #814E31",
"*. c #804F3C",
"=. c #865333",
"-. c #8A5335",
";. c #85533C",
":. c #8D563B",
">. c #8B5C3D",
",. c #885E34",
"<. c #915C35",
"1. c #905738",
"2. c #945A3A",
"3. c #995E3B",
"4. c #8C632D",
"5. c #976C2E",
"6. c #8C6231",
"7. c #946234",
"8. c #9B6C34",
"9. c #96613D",
"0. c #9C633B",
"q. c #9D6B3C",
"w. c #956A35",
"e. c #9E7333",
"r. c #AC7D2D",
"t. c #A46C3C",
"y. c #A46E37",
"u. c #A37536",
"i. c #A67936",
"p. c #AA7B36",
"a. c #A4743B",
"s. c #AA733D",
"d. c #AD7B3A",
"f. c #A7783D",
"g. c #B27C3E",
"h. c #B07F33",
"j. c #825442",
"k. c #845B44",
"l. c #845B4D",
"z. c #865848",
"x. c #84644D",
"c. c #896546",
"v. c #936643",
"b. c #9A6543",
"n. c #9A6C42",
"m. c #9D6D49",
"M. c #8E6A59",
"N. c #8B6952",
"B. c #926C53",
"V. c #936F5B",
"C. c #887357",
"Z. c #977559",
"A. c #97754F",
"S. c #AB7B41",
"D. c #A27347",
"F. c #A57A54",
"G. c #A46340",
"H. c #9D7A64",
"J. c #A17E67",
"K. c #B4823C",
"L. c #BA853E",
"P. c #BE8A3F",
"I. c #B98731",
"U. c #B1842B",
"Y. c #C18D3F",
"T. c #9C825E",
"R. c #B68440",
"E. c #BC8940",
"W. c #AB845B",
"Q. c #AD8A5E",
"!. c #B0835D",
"~. c #988265",
"^. c #AC8B65",
"/. c #A48C6A",
"(. c #A78868",
"). c #B58B64",
"_. c #B49469",
"`. c #BC996D",
"'. c #B8936A",
"]. c #B08F70",
"[. c #AC9371",
"{. c #BD9C73",
"}. c #BC9E7B",
"|. c #B89875",
" X c #BCA37E",
".X c #C28E40",
"XX c #C59041",
"oX c #C09D6F",
"OX c #C29D74",
"+X c #C1A276",
"@X c #C5A57A",
"#X c #CAAA7D",
"$X c #CBA674",
"%X c #D3AE7B",
"&X c #ABA09A",
"*X c #B3A9A2",
"=X c #CCAD82",
"-X c #C2A682",
";X c #CFB085",
":X c #CDB189",
">X c #D2B286",
",X c #D4B58A",
"<X c #D7B98D",
"1X c #DABA8E",
"2X c #DBB886",
"3X c #DCBE92",
"4X c #DFC195",
"5X c #E1C296",
"6X c #EDCA95",
"7X c #E2C498",
"8X c #E9C592",
"9X c #F3CD94",
"0X c #F1CE98",
"qX c #F9D196",
"wX c #F6D098",
"eX c #FED599",
"rX c #F1C98F",
/* pixels */
"                                                                                                                                ",
"                                                                                                                                ",
"                                                                                                                                ",
"                                              9.G.                                                                              ",
"                                             .q.D.o.                                                                            ",
"                                          O.] 0.w.k.                                                                            ",
"                                          O.j.c G f.(                                                                           ",
"                                          j.1.y A e.7                                                                           ",
"                                        O.;.U > A 5.#                                                                           ",
"                                        O.;.u . f e.#                                                                           ",
"                                        ~ _ c X f 4.#                                   0.P                                     ",
"                                        d n c * y U +                           0.3.0.s.u.&                                     ",
"                                      g T u 1 w V Y +                       G.3.s.L.L.E.i.#                                     ",
"                                      i $.u X u V 6                       t.s.g.s.W f K ,.+                                     ",
"                                      p T v O y V X                     2.S.s.%.f & & u u O                                     ",
"                                      i &.K & u b X                 z.v.q.Q v 4 # X u U @                                       ",
"                                      s T d ; i s X               N.v.I.4.$ @ ; w 1 u V O                                       ",
"                                        g * y l O                 v.E.i.2 o : r * u v +                                         ",
"                                        p & 0 j .   g           j.q.i.a o - w r & u c X                                         ",
"                                        $.i I ,.S h %.# .     c.S.4.a o * r r r i u 1                                           ",
"                                      ..1.<.8.g.y.%.d.E u < N n.4.4 . X w r r h v >                                             ",
"                                      v.t.g.g.g.g.s.g..Xt.z ^ f.4.4 . . ; d C C 6                                               ",
"                                    k.E.Y.Y.Y.Y.Y.L.D.E.L.6.D.Y.I.E $ # 1 U / y                   V.+.|                         ",
"                                  O.S.Y..X.XY.Y..XY.L..XE.R.E.E.6.g u U C > #             O.l.^.;X>X+.+                         ",
"                                  o.R.Y.E.XXY.P.XXXXY.XX.XY..X5.U T T d 1             x.^.}.-X=X@X).m .                         ",
"                                0.S.E.Y.XXY.XXXXE.XXXXE..X.X.Xe._ _ V               H. X;X4X3XOX#Xx.#                           ",
"                                <.4.P..XY.XXP.XXP.XXY.XX.X.X.Xs.:.n -             H.-X4X4X5X1X_.;X@..                           ",
"                                -.x.f.P.XXE.XXXXE.XXP.XX.XY..Xg.3.v X           l.[.4X4X5X5X3XOX;X~.q                           ",
"                                ^ *X' K.Y.Y.XXP.XXY.L.K.P.XX.XY.S.b X         l.B.@X4X4X4X4X4X4X4X<XX.                          ",
"                                o 3 # K.XXY.XXY.E.P.9.W K.P..X.Xt.b .       O.N.`.4X4X4X4X4X4X4X4X4X#.o                         ",
"                                o - & i.Y.XXY.XXXXi.[ &XJ e.Y.d.3.V .       O.B.@X4X#X{.4X4X8X8X4X7X:X@..                       ",
"                              F D > m K.XXY.XXE.Y.U.q { < e.XXf.2.v X     z.;.v.`.;XQ.F.{.2X&X4X4X4X4X#.X                       ",
"                            w D U.S ,.8.L..XP.XXY.e.# @ $ u.L.t.:...G     ..:.1.!.'.m.b.W.oX!.<X4X5X5X[.H                       ",
"                              Q U.Y.p.R K..XXXXXY.u.- - ; i.t.2.j.H.&Xx   o.:.2.m.m.2.b.F.3.b.=X3X5X<X>X~.#                     ",
"                                5.I.8.p.K.L.E.E.P.p.f 5 %.g.t.:.j.(.3X:XN.&.:.2.2.2.2.2.1.2.3.F.=X4X).m.x.O                     ",
"                                S r.K.>.w.f.L.n.n.P.K.p.L.0.3.*.J.3X7X3X}.7 T 2.2.2.2.2.2.1.3.v.OX@Xm.b._ O                     ",
"                              Q.v.A 4.p.I.q.k.n.L.E.E.t.0.2.2.*.(.7X4X4X-Xq / 2.2.2.2.2.2.2.2.2.F.F.b.1.C O                     ",
"                            $X%X|.' _ D 8.a.q.S.L.d.s.3.2.;.] B.-X5X3X=X:XC.k.:.2.2.2.2.2.2.2.2.m.G.1.2.C O                     ",
"                          `.2X0X5X`.@.m v.D.D.f.9.:.;.;.j.z.N.|.5X5X3XOX#X~.+.j.2.3.2.2.2.2.2.2.b.2.2.1.C O                     ",
"                        Q.%X6X6XqX>X`.`.2X{.Z.V.M.M.M.M.V.(.@X,X7X3X3X3X^.3 N *.1.2.2.2.2.2.2.2.1.2.1.j.B O                     ",
"                        Q.%X0X6XrX$XrXqXeXqXqX8X3X3X<X>X3X3X@X#X3X5X4X,X/.q H } j.:.1.2.2.2.2.2.:.:.) | x +                     ",
"                        Q.@X6X6X5XrXeXeXeXeXeXeXeXwX1X+X<X3X3X@X-X7X,X(.x M | } }  .*.1.2.2.2.2.]  .} k %                       ",
"                          J.@X2X$XqXeXeXeXeXeXeXeXeX6X;X+X3X4X@X@X5X,XZ.% , Z } } } ............ .| | j .                       ",
"                          m (.=X`.9XeXeXeXeXeXeXeXeXeX1X'.>X7X@X@X7X;X` 6 % N  .} } } } } } } | } } B ,                         ",
"                            x.A.A.9XeXeXeXeXeXeXeXeX0X1X_.,X,X@X>X@X#.c T u k N } } } } | } } } ....9 .                         ",
"                              p E $X9XeXeXeXeXeXwX0X4X;X+X,X@X^.[.C.z -.2.=.> k } } } } } .. ...;.~ ,                           ",
"                                  I ;XqXeXeXeX6X3X4X<X_.;X1X{.H 5 U 1.2.2.=.8 k | } } }  .;.) =.( 0                             ",
"                                  b ^.4X7X8X8X#X#X4X:XJ x.^.` c T 1.<.2.2.1./ y k } } ..j...*.5 < +                             ",
"                                    [ >X#X,X4X@X{.:XX.x _ G m U / T 1.2.2.2.1.t 9  .} ! 6 8 5 +                                 ",
"                                      N.` /.,X#X^.X.0 n -.b T 2.K V 2.2.2.2.1.t % 9 9 , X                                       ",
"                                      w e +.#.T.C.6 ! g -.2.2.T v ^ :.2.2.2.1.t . . .                                           ",
"                                      i T b & G ` u ! u <.0.3.y , ~ ) 1.2.2.$.6                                                 ",
"                                      p &.-./ c # > x 4 a.L.s.u * C 2.2.2.-.5                                                   ",
"                                    g T :.2.2.V * $ = e K.XXE.L i -.2.2.2.&.<                                                   ",
"                                  g T 1.2.2.T d   : # 4.P.Y.XXL : T -.C / y                                                     ",
"                                  p $.Y -.T r     5 E L.Y.Y.L.s X ; t * 5                                                       ",
"                                  s b 5 d d -     4 i.Y.L.P.7.6 . . . . .                                                       ",
"                                    X X o ;       - =.a.1.i.f                                                                   ",
"                                                    s - # =                                                                     ",
"                                                                                                                                ",
"                                                                                                                                ",
"                                                                                                                                ",
"                                                                                                                                ",
"                                                                                                                                "
};
