/* XPM */
static char *_92418046ec84facae92e846a7d7b1bdOTowolp7kPUwArH6[] = {
/* columns rows colors chars-per-pixel */
"64 64 165 2 ",
"   c #362F28",
".  c #373029",
"X  c #3B342C",
"o  c #3E3730",
"O  c #3F3831",
"+  c #42372C",
"@  c #42392E",
"#  c #483C2F",
"$  c #433C34",
"%  c #493D31",
"&  c #463F38",
"*  c #474037",
"=  c #4A4236",
"-  c #474039",
";  c #4A433C",
":  c #4F483F",
">  c #554535",
",  c #504539",
"<  c #51493F",
"1  c #594B3C",
"2  c #694F33",
"3  c #635634",
"4  c #6F5232",
"5  c #685836",
"6  c #6B533A",
"7  c #725534",
"8  c #735A3E",
"9  c #7E623D",
"0  c #4E4740",
"q  c #4F4841",
"w  c #534B43",
"e  c #5B4F42",
"r  c #575047",
"t  c #5A5246",
"y  c #5B554A",
"u  c #5F594B",
"i  c #635443",
"p  c #6A5743",
"a  c #675C47",
"s  c #6D5943",
"d  c #625B4D",
"f  c #695E4C",
"g  c #745D43",
"h  c #785F43",
"j  c #625C53",
"k  c #66624F",
"l  c #7B6244",
"z  c #73634A",
"x  c #7B674D",
"c  c #766B4C",
"v  c #676152",
"b  c #6A6355",
"n  c #6E6956",
"m  c #6D6659",
"M  c #6F685A",
"N  c #746B56",
"B  c #7C6C53",
"V  c #736D5C",
"C  c #76725C",
"Z  c #79745E",
"A  c #7D7A5E",
"S  c #7B7660",
"D  c #7E7A61",
"F  c #846644",
"G  c #876845",
"H  c #8A6945",
"J  c #84694A",
"K  c #8B6D49",
"L  c #8D724D",
"P  c #90754D",
"I  c #816D55",
"U  c #867251",
"Y  c #8B7552",
"T  c #8C7955",
"R  c #827D59",
"E  c #8C7C5A",
"W  c #947754",
"Q  c #937A52",
"!  c #967959",
"~  c #987B5A",
"^  c #817E63",
"/  c #8C7A63",
"(  c #9A845B",
")  c #9D8B5E",
"_  c #858265",
"`  c #8A8665",
"'  c #8E8A66",
"]  c #858068",
"[  c #898768",
"{  c #8D8C6A",
"}  c #988066",
"|  c #9F8964",
" . c #908F6B",
".. c #8F906C",
"X. c #93926D",
"o. c #99976E",
"O. c #98986F",
"+. c #969571",
"@. c #9A9772",
"#. c #9C9C72",
"$. c #A08F61",
"%. c #A5936B",
"&. c #A69A69",
"*. c #A89D6B",
"=. c #A28E78",
"-. c #A19F73",
";. c #A19F7A",
":. c #ABA26F",
">. c #A4A475",
",. c #ADA672",
"<. c #A9A977",
"1. c #A5A57A",
"2. c #A9A67F",
"3. c #ACAC7A",
"4. c #B1AC76",
"5. c #B0AF7B",
"6. c #B5B57D",
"7. c #B8B87F",
"8. c #898582",
"9. c #8E8984",
"0. c #918C88",
"q. c #AB9A86",
"w. c #AB9C8B",
"e. c #B19D86",
"r. c #B29E88",
"t. c #AAA781",
"y. c #AFAF81",
"u. c #B1A085",
"i. c #B6A28B",
"p. c #B6A28C",
"a. c #B7A38D",
"s. c #B8A38C",
"d. c #B1B180",
"f. c #B7B782",
"g. c #B4B286",
"h. c #B4B484",
"j. c #B7B586",
"k. c #B8B584",
"l. c #B9B980",
"z. c #BABA81",
"x. c #BBBB82",
"c. c #BBBB83",
"v. c #BFBF86",
"b. c #B7B788",
"n. c #B9B989",
"m. c #BABA89",
"M. c #BCBB8B",
"N. c #BFBF88",
"B. c #BDBD8C",
"V. c #C0C087",
"C. c #C2C289",
"Z. c #C6C78D",
"A. c #C2C190",
"S. c #CACA92",
"D. c #CCCC93",
"F. c #CACA95",
"G. c #CCCC94",
"H. c #CECE95",
"J. c #CCCC96",
"K. c #CFCF98",
"L. c #D1D198",
"P. c #D2D29A",
"I. c #D4D49B",
"U. c #D6D69D",
"Y. c #D8D89F",
/* pixels */
"u.e.e.r.s./ 6 6 6 6 6 g =.r.p.p.p.p.a.u.q.e.q.e.s.s.w.0.0.9.8.9.q.t.i.s.p.p.p.p.e.r.~ 7 g 2 s I x K E / I K T E W U J J h 9 7 6 ",
"L H H H H H H H H H H K H H H L G G G K H F h h l g g d M C n d g l g g L H H G h g l l G G H H H H H H H H H H G L Y H K K H ! ",
"P H H G H H H H H H H H H H Y ' L G G F F i t u t t b @.F.P.N.{ d y u d ^ U F l d u u i F G H H H H H H H H H H H ~ E H H H H ! ",
"P H J N J H H H H H H H H H Y ' L G 9 1 e u _ M.<.X.#.G.U.U.S.3.' 2.Z.g.v e e v b.C.j.o.y f B H H G H H H H H H H ` E K H H H ! ",
"P J B ^ B J H H H H H H H H K Y K 8 k A [ _ ..<.>.X.>.Z.U.B.1.#.X.6.D.P.2.>.@.O.V.Z.f.X.f y f B H H H H H H H H H L L H H H H ! ",
"L J B ^ B I K Y K P ( ( K H H H 9 k C #.6.<.#.>.2.@.#.<.n.;.....#.3.V.G.G.H.Z.z.7.7.6.1.+.V d f G Y L K ( ( Q H H H H H H H H ! ",
"L H J N J H Y ' L ) 4.,.W H H l t C #.7.7.7.7.7.G.3.X.+.+...+.#.6.6.7.7.7.7.6.z.7.6.C.P.P.2.Z t l ` E W ,.4.$.H H H H H H H H ! ",
"P H H J G H K  .L K P P H H l t A ..#.6.7.7.7.7.z.>.O.3.6.6.3.6.7.7.7.7.6.7.6.6.7.f.z.z.z.7.X.v y R E H P L K H H H K H H H H ! ",
"P H H H H H K L K H H H H g a Z ..#.6.7.7.7.7.7.z.-.X.#.#.#.>.z.7.7.7.7.7.7.7.7.7.7.7.7.7.7.>._ A b z H G H H H H H Y ` H H H ! ",
"P H L ) ) Q G H H H H G g d b  ...>.7.6.7.7.7.7.7.#...X.#.-.>.<.>.<.3.6.7.7.7.7.7.7.7.7.7.x.>.D _ N a 5 G H H H H H Y T H H H W ",
"P H Q :.,.) H H H H H l t v S X.O.<.7.7.7.7.7.6.6.#.O.O.3.6.3.#.+.X.>.z.7.7.7.7.7.7.6.7.7.3.X.C C _ k & 8 G H H H H H H H H H W ",
"P H H L L K H H H H l e v S { X.3.6.7.7.7.7.6.6.#.>.6.3.O.<.V.D.z.#.1.G.7.6.7.7.7.7.7.7.6.[ S { ` Z d = + 8 H K K H H H H H H ! ",
"P G H G H H H H H g d A V ^ X.X.3.7.6.7.7.7.3.#.<.>.>.6.X.O.<.v.z.@.+.;.O.O.>.7.7.7.7.3._ _ D S { [ n q & % x ,.*.W H H H H H ! ",
"P G H H G L T G 6 1 u { V ^  .X.6.7.7.7.7.7.<.O.6.<.-.>.X...#.6.<.O.#.d.g.g.3.<.6.7.7.<.C _ [ _ ..X.C q w X 1 _ $.P H H H H H ! ",
"P H H H H T E 8 % ; n [ S ^ [ X.3.7.7.7.7.7.3.#.<.6.>.....X.>.6.X.#.j.U.Y.I.b.+.<.6.7.3._ _ _ _ _ [ C t & X   + g G H J H H H ! ",
"P H H H K K 8 o - n { X.{ S C X.6.7.7.7.7.7.6.6.O.X.X...X.>.6.5.X.N.I.U.P.N.2.....3.7.7.6.[ V V M C D A +       X 8 B N H H H ! ",
"K H H H H H 8 X - n X.X...S M S 3.7.6.z.7.7.7.7.5.5.5.5.5.6.7.6.X.3.v.z.>.#.X.....<.7.7.7.3.@.' { [ { _ q X .   . u A _ N J H ! ",
"H H G H K 8 > = k _ ......D V D ' >.7.7.7.7.6.7.7.7.7.7.7.7.7.6.X.<.6.>.>.X.X.....<.7.7.7.7.<.......^ k q o . . X - j A J G H ! ",
"K K Y L l > $ < _ ......[ S D { V X.z.7.7.6.7.7.7.7.7.7.7.7.7.6.>.>.>.X.6.#.{ ..X.<.7.7.7.7.<.@.....N q r - . .     * a H H H ! ",
"P T ' _ = $ : w _ ....[ Z _ ..{ C X.6.6.6.6.6.7.7.7.7.7.7.7.7.6.6.>.X.O.3.#.......<.6.6.7.7.6.6.X...n r b r O .       # F L L ~ ",
"K K l * ; : : w _ ..[ C [ { ..{ C _ O.X.X.o.>.6.7.7.7.7.7.7.7.7.7.6.3.3.O.X...X...X.O.#.6.6.z.3.X.k u v r q - . .     # G &.4.f.",
"L l 1 X - q w j _ _ A _ { ..{ D X.>.<.<.<.@.@.6.7.7.7.7.7.7.7.7.7.7.7.z.3.<.<.<.<.<.-.X.6.z.7.6.X.^ b y u r ; O .     X > b T %.",
"K p - X - : r M [ Z M { { [ D D 3.z.7.7.7.-.#.6.7.7.7.7.7.7.z.7.7.7.6.7.7.7.7.7.7.7.<.X.6.6.6.6.X.[ n y j r q ; . . . . . & t B ",
"G p - X ; q r M [ n u { ..D S X.<.6.7.7.7.-.#.7.7.7.7.7.7.7.6.7.7.7.7.7.7.7.7.7.7.7.<.O.z.z.6.3.X.A n v q q q ; .   . . . & q j ",
"Q s ; X ; q w M [ n u { ..D S { X.<.7.7.7.-.O.6.7.7.7.7.z.6.z.7.7.7.7.7.7.7.7.7.7.7.>.@.G.C.<.X.{ S j w q 0 0 0 X   .   . ; 0 j ",
"P s - X - q r M [ n u [ D D [ { X.>.7.7.7.-.X.#.O.#.>.6.6.z.7.7.7.7.7.7.7.7.7.7.7.7.<.X.1.#.X.{  .C u 0 0 q q & .   .   X = 0 j ",
"P p - . - q r M N u u { V ^ { X.{ <.7.7.7.<.#.>.-.X.-.C.z.6.z.6.7.7.7.7.7.7.7.7.7.7.3.>.>.2.#._ { ^ M y q 0 0 $ .   .   X & 0 j ",
"P p ; X ; q w d r r b [ C D X.....>.7.7.7.7.7.7.7.-.1.I.v.6.z.z.7.7.7.7.7.7.7.7.z.6.7.7.6.S.t.C +.@.[ j r q $   . . .     ; q j ",
"P s ; . ; q - O ; n { { C A X.{ ..>.7.7.7.7.7.7.7.#.1.K.z.7.6.6.7.7.7.7.7.7.7.7.7.7.7.7.z.z.@.S <.5. .m m r $     . .   X & q j ",
"P s - . - - O ; C [ ..{ C D ....{ <.7.7.7.7.7.7.7.-.+.>.O.+.>.f.7.7.7.7.7.7.7.7.7.7.7.7.6.6.>.[ ^ ^ f 0 b b w     . .     ; q j ",
"P s - X ; $ X w C [ ...._ D _ ..>.3.7.7.7.7.7.7.7.#.....>.>.>.-.>.>.>.7.7.7.7.7.7.7.7.7.z.7.>.S m S j $ 0 w &     .     . - q j ",
"Q p ; o * O X w n A { ..{ S Z X.6.6.7.7.7.6.7.7.5.-.O.#.<.7.5.-.#.X.>.v.7.7.7.7.7.7.7.7.7.<.{ C C _ N w & $ .           @ & 0 j ",
"P p 0 0 o   o q D D S [ ..D C { <.6.7.7.7.7.7.5.o.<.6.3.#.>.V.G.7.#.1.G.f.3.z.z.7.7.7.7.6._ S { { S j r j r - . . .   o : 0 0 j ",
"P p 0 0 X   o 0 M D _ S [ D M C A #.7.7.7.7.3.O.3.-.>.6.X.X.>.v.7.#.+.#.#.O.-.f.7.7.7.3.^ _ ^ S { ' A j w j u - ; o o ; : 0 q u ",
"P l p 0 & o X 0 b C D ^ D [ #.t.2.1.<.6.7.7.<.@.6.-.X.-.X.{ #.6.>.O.#.b.b.n.y.>.6.7.7.3.V ] ' _ { X._ m j u r 0 0 X $ w q 0 q j ",
"P H l q q O o 0 u b C _ S X.7.S.G.3.O.3.7.7.3.#.1.O.{ ..{ #.>.3.X.#.n.Y.Y.I.f.X.<.6.7.5.` ] _ _ _ _ Z j m r 0 0 - X $ - 0 0 0 j ",
"P H l w 0 O O 0 q u M M [ ..O.6.7.>.{ ..3.7.7.6.#.@.X.+.X.<.7.6.+.n.I.P.P.n.1.X.X.<.7.6.6.` C C V M u r b r 0 ; X     X 0 0 0 j ",
"P H l 0 O $ 0 0 q d j r _ ....O.X..._ Z ..<.7.6.3.6.6.3.6.6.7.6.+.5.z.7.-.O.X.{ X.<.7.7.7.6.3.>.{ d u j w q 0 ; X     o 0 0 0 j ",
"P H F < o O q q u u r w _ ..O.>.+._ S _ A #.7.7.7.7.6.z.7.7.6.6.X.<.5.-.<.O..... .<.7.7.7.7.7.6.X.d w r w q ; o       X 0 0 0 j ",
"P K B 0 o $ w y b b b b C A ..6.+._ S _ ` >.z.7.7.7.7.7.7.7.7.6.>.>.#.X.6.#.....X.<.7.7.7.6.6.6.X.d 0 q 0 q $         o O 0 0 j ",
"P Y Z q X $ r M V ^ ..[ u v ^ >...[ _ S >.6.6.6.7.7.7.7.7.7.7.7.7.-.+.O.3.O.......>.6.6.6.7.6.3.{ j 0 q 0 0 $           X ; 0 j ",
"L s w : X $ r V _ { [ V [ [ _ A V C A { X.X.#.6.7.6.7.6.7.6.7.6.6.6.6.5.#.X.X.X.X.X.X.X.6.6.<.X.[ j 0 q 0 O .   .   .   . ; ; j ",
"L s : $ r n D _ ..C v M [ ..{ _ _ X.1.3.<.#.#.6.z.f.z.d.>.#.#.#.O.O.>.7.3.3.3.3.3.3.O.Z ^ ^ [ [ j r 0 0 0 o       . .   . ; 0 j ",
"P s - X u ^ X...A u r S { ........#.<.<.<.#.#.6.<.<.>.>.X.{ { { { X.O.>.<.<.1.1.<.6.o.V [ _ C b - r r 0 0 $ $ O .       . - ; j ",
"L s ; X v _ ..' u q v ..[ ......[ ......X.' +.5.+.{ [ [ [ [ {  .........[ [ [ [ X.>.X.S 6.X.n ; X y j q 0 q q ; X X X   X - q j ",
"Q s * o Z ....{ y y C [ Z ^ ..[ C D { { { Z _ 5. .S M M M M S { ....{ [ C M M V ' { D Z <.N q ; X y j q q q q ; . & $ . . ; 0 j ",
"L 8 ; X A ....[ y y M S _ D M y r y y u u r d Z j y y m y j M C C C Z C M M M m u u y y Z u q 0 ; & q j q 0 0 ; X X $ & X - 0 j ",
"P p * X A X...{ y j M M S n r : : : : q : - q b w 0 w u u u u u u u d M M M b u u w - ; b r q q 0 o O w 0 0 ; O . o $ O . ; 0 j ",
"P s ; X C { { A t y b m b r 0 q q q q q q $ - b w 0 0 w j r : & & 0 r j M j d y j r $ @ j y q q 0 O . o w w & . o & & X . ; 0 j ",
"P s ; o u D A r q w r v w 0 q q q q q q 0 o & b r w 0 0 0 0 & X X & 0 w j r y j w q $ @ j y q q 0 0 & O v w $ X ; O O - . ; q j ",
"P s ; ; $ t V b b b u $ X & q q q q q q 0 $ o w j r 0 0 0 $ $ ; ; @ $ 0 r w q w q q & X w j y q 0 0 0 ; $ X . X 0 ; $ X   0 0 j ",
"P s : : - - w M M M j - X $ q q q q q 0 q $ X o : 0 0 0 $ $ & q q O $ 0 q q 0 0 q q & X ; y r 0 0 0 0 0 & . o - 0 0 ; $   & 0 j ",
"P s : : q O $ b M b u 0 X $ q q 0 ; & $ & $ o o . $ & & o & q q 0 O o $ $ 0 q 0 q 0 & $ $ $ & & 0 q q q 0 & & q q q 0 $ o - q j ",
"P s w q q O * b m y 0 0 o $ 0 0 0 $ X X X & 0 0 X . X X ; 0 q 0 0 $ X X o $ 0 0 0 0 0 0 X X X o 0 0 0 q 0 0 0 q q q $ X 0 q q y ",
"P G l : q $ * b r q 0 0 0 O O 0 0 $ o ; ; 0 q 0 ; @ o ; 0 0 0 0 0 0 ; 0 0 @ X X o & 0 0 0 0 $ o ; O O q 0 0 0 q q q $ o 0 q q j ",
"P K l : q $ X - 0 q q q q O o 0 0 o o 0 0 0 0 0 $ $ ; 0 w 0 q w 0 0 0 0 0 ; $ $ X & q 0 q 0 $   o $ & O 0 0 0 q q q $ X 0 q e Z ",
"L H F i w & o . ; 0 0 0 0 O X & $ $ $ 0 q ; $ $ X o ; q q 0 0 w 0 q 0 q q q q 0 X o $ $ $ & o X o $ $ $ $ 0 0 0 0 & $ $ 0 q p ~ ",
"P H H F i w - o & ; 0 0 0 & . X X & q q 0 $ X X X X X - ; ; ; ; & 0 0 0 q q 0 ; o o o X o o X o & o o & o & ; ; & $ $ q q w s ~ ",
"H H H H H p 0 ; o . O 0 0 0 0 ; 0 0 0 0 q 0 0 0 ; O   X . X . X o $ q 0 0 0 0 0 0 & ; 0 & 0 0 & o     o ; o X X X & q q q h H ~ ",
"H H H H H F s w ; & & O o o o o 0 q 0 0 q q 0 0 q ; $ X & - - - & $ o o o o o O 0 q 0 0 q q 0 0 X       o   @ & & q q q q h H ! ",
"K L T T K H J s p e ; $ o O $ $ $ $ $ $ $ $ $ $ $ $ $ $ 6 p p s p , $ $ O $ $ O $ $ $ $ $ $ $ $     X $ $ $ & 0 0 0 0 w p F H W ",
"L T ' ' K H H H G h e e e w 0 ; @ X o o o X X # % # = i F H K H H p e e e e e q @ X o X o X X X o X $ 0 0 0 0 < 0 0 w i H W W | ",
"H H H K H H H H H J G G F p w w 0 < < < w : i F F G G F F F H F H H H F F H H F w < < < 0 q < < w 0 0 w < w w w w w p G H *.4.k.",
"L H H H H H H H H H H H H F l h l l h l h l l H H H 9 3 3 3 3 6 F H H G H H H F F h h h F h l l h l h l l l h l h h G H H W W $."
};
